# xmcd CD database file
#
# Track frame offsets:
#	150
#	10274
#	27902
#	42529
#	68329
#	93826
#	105142
#	126666
#	166673
#
# Disc length: 2560 seconds
#
# Revision: 0
# Processed by: cddbd v1.5.1PL0 Copyright (c) Steve Scherf et al.
# Submitted via: CDex 1.51
#
DISCID=6309fe09
DTITLE=Chris Barber - Chris Barber in Berlin 1
DYEAR=1968
DGENRE=Jazz
TTITLE0=Battersea Rain Dance
TTITLE1=Mercy, Mercy, Mercy
TTITLE2=New York Town Blues
TTITLE3=Jeep's Blues
TTITLE4=Shout 'Em Aunt Tillie
TTITLE5=Harlem Bound
TTITLE6=Over In The Gloryland
TTITLE7=Saratoga Swing
TTITLE8=Work Song
EXTD=YEAR: 1968
EXTT0=
EXTT1=
EXTT2=
EXTT3=
EXTT4=
EXTT5=
EXTT6=
EXTT7=
EXTT8=
PLAYORDER=
